# xmcd
#
# Track frame offsets:
#	150
#	13924
#	30147
#	52388
#	68543
#	84652
#	100966
#	116985
#	134694
#	153311
#	173446
#	190303
#
# Disc length: 2721 seconds
#
# Revision: 2
# Processed by: cddbd v1.5.2PL0 Copyright (c) Steve Scherf et al.
# Submitted via: audiograbber 1.83.01
#
DISCID=a00a9f0c
DTITLE=Sibel - The Diving Belle
DYEAR=2008
DGENRE=Pop
TTITLE0=That Is Where I'll Go
TTITLE1=Make Believe
TTITLE2=How I Treid To Let You Go
TTITLE3=I'm Sorry
TTITLE4=Maybe Someday
TTITLE5=Walking Away
TTITLE6=Don't You Wanna Know
TTITLE7=Until The World Fades Away
TTITLE8=The Reason Was You
TTITLE9=Any Day Now
TTITLE10=All I Need Is One
TTITLE11=Open Arms
EXTD=
EXTT0=
EXTT1=
EXTT2=
EXTT3=
EXTT4=
EXTT5=
EXTT6=
EXTT7=
EXTT8=
EXTT9=
EXTT10=
EXTT11=
PLAYORDER=
